<?xml version="1.0" standalone="no"?>
<!DOCTYPE svg PUBLIC "-//W3C//DTD SVG 20010904//EN"
 "http://www.w3.org/TR/2001/REC-SVG-20010904/DTD/svg10.dtd">
<svg version="1.0" xmlns="http://www.w3.org/2000/svg"
 width="50.000000pt" height="50.000000pt" viewBox="0 0 50.000000 50.000000"
 preserveAspectRatio="xMidYMid meet">

<g transform="translate(0.000000,50.000000) scale(0.100000,-0.100000)"
fill="#000000" stroke="none">
<path d="M40 340 c-16 -29 -24 -119 -16 -164 5 -26 12 -36 26 -36 22 0 25 4
35 49 5 26 4 32 -6 29 -8 -3 -17 -18 -20 -34 -4 -18 -7 -1 -8 46 0 41 4 82 9
90 8 12 10 9 10 -12 0 -16 5 -28 11 -28 6 0 9 16 7 37 -4 44 -30 56 -48 23z"/>
<path d="M100 335 c0 -16 6 -25 15 -25 12 0 13 -4 6 -18 -14 -27 -26 -166 -13
-158 6 3 14 37 17 74 4 37 14 82 21 101 19 47 18 51 -16 51 -25 0 -30 -4 -30
-25z"/>
<path d="M196 338 c-3 -13 -4 -48 -1 -78 3 -38 2 -46 -3 -25 -7 27 -9 24 -16
-28 -4 -32 -5 -61 -2 -65 3 -3 6 7 6 21 0 36 17 34 25 -3 13 -58 26 -18 24 73
-2 96 -7 127 -19 127 -4 0 -10 -10 -14 -22z"/>
<path d="M250 313 c0 -27 -3 -78 -6 -114 -6 -65 -6 -66 17 -64 30 2 48 48 48
125 1 79 -7 100 -35 100 -22 0 -24 -4 -24 -47z m35 -100 c-3 -24 -9 -43 -13
-43 -9 0 -4 138 6 160 9 22 15 -67 7 -117z"/>
<path d="M320 251 c0 -86 3 -110 15 -114 10 -4 16 3 19 26 3 18 10 62 16 98
14 89 11 118 -5 44 l-12 -60 -2 58 c-1 43 -5 57 -16 57 -12 0 -15 -19 -15
-109z"/>
<path d="M386 253 c-7 -123 8 -163 17 -47 9 104 9 154 -1 154 -5 0 -12 -48
-16 -107z"/>
<path d="M426 318 c-11 -79 -11 -173 -1 -178 6 -3 13 15 16 40 5 34 6 37 7 14
1 -16 8 -38 15 -47 10 -15 12 2 12 95 0 108 -1 113 -22 116 -19 3 -22 -3 -27
-40z m31 -40 c-2 -13 -4 -3 -4 22 0 25 2 35 4 23 2 -13 2 -33 0 -45z"/>
</g>
</svg>
