<?xml version="1.0" standalone="no"?>
<!DOCTYPE svg PUBLIC "-//W3C//DTD SVG 20010904//EN"
 "http://www.w3.org/TR/2001/REC-SVG-20010904/DTD/svg10.dtd">
<svg version="1.0" xmlns="http://www.w3.org/2000/svg"
 width="25.000000pt" height="25.000000pt" viewBox="0 0 25.000000 25.000000"
 preserveAspectRatio="xMidYMid meet">

<g transform="translate(0.000000,25.000000) scale(0.100000,-0.100000)"
fill="#000000" stroke="none">
<path d="M50 240 c0 -5 -9 -10 -20 -10 -19 0 -20 -7 -20 -110 l0 -110 63 2 62
2 -57 3 -58 4 0 74 0 75 104 0 105 0 4 -27 c2 -16 5 -2 6 30 1 51 -1 57 -19
57 -11 0 -20 5 -20 10 0 6 -7 10 -15 10 -8 0 -15 -4 -15 -10 0 -5 -20 -10 -45
-10 -25 0 -45 5 -45 10 0 6 -7 10 -15 10 -8 0 -15 -4 -15 -10z m17 -22 c-3 -8
-6 -5 -6 6 -1 11 2 17 5 13 3 -3 4 -12 1 -19z m120 0 c-3 -8 -6 -5 -6 6 -1 11
2 17 5 13 3 -3 4 -12 1 -19z m-137 -8 c0 -5 7 -10 15 -10 8 0 15 5 15 10 0 6
20 10 45 10 25 0 45 -4 45 -10 0 -5 7 -10 15 -10 8 0 15 5 15 10 0 6 7 10 15
10 8 0 15 -7 15 -15 0 -12 -18 -15 -105 -15 -87 0 -105 3 -105 15 0 8 7 15 15
15 8 0 15 -4 15 -10z"/>
<path d="M181 65 c-41 -44 -51 -65 -30 -65 19 0 102 86 95 98 -12 19 -21 14
-65 -33z m23 -16 c-15 -15 -31 -26 -36 -23 -5 4 3 19 18 35 15 15 31 26 36 23
5 -4 -3 -19 -18 -35z"/>
<path d="M230 36 c0 -8 -8 -17 -17 -19 -14 -4 -12 -5 5 -6 16 -1 22 5 22 19 0
11 -2 20 -5 20 -3 0 -5 -6 -5 -14z"/>
</g>
</svg>
