<?xml version="1.0" standalone="no"?>
<!DOCTYPE svg PUBLIC "-//W3C//DTD SVG 20010904//EN"
 "http://www.w3.org/TR/2001/REC-SVG-20010904/DTD/svg10.dtd">
<svg version="1.0" xmlns="http://www.w3.org/2000/svg"
 width="23.000000pt" height="23.000000pt" viewBox="0 0 23.000000 23.000000"
 preserveAspectRatio="xMidYMid meet">

<g transform="translate(0.000000,23.000000) scale(0.100000,-0.100000)"
fill="#000000" stroke="none">
<path d="M50 220 c0 -5 -9 -10 -20 -10 -19 0 -20 -7 -20 -100 l0 -100 105 0
105 0 0 100 c0 92 -2 100 -19 100 -11 0 -22 6 -25 13 -5 10 -7 10 -12 0 -7
-15 -94 -18 -94 -3 0 6 -4 10 -10 10 -5 0 -10 -4 -10 -10z m4 -32 c5 -10 7
-10 12 0 8 16 90 16 98 0 5 -10 7 -10 12 0 8 17 34 15 34 -3 0 -12 -17 -15
-95 -15 -78 0 -95 3 -95 15 0 18 26 20 34 3z m156 -98 l0 -70 -95 0 -95 0 0
70 0 70 95 0 95 0 0 -70z"/>
<path d="M140 124 c0 -5 -7 -18 -15 -28 -12 -16 -17 -17 -30 -6 -10 8 -15 9
-15 2 0 -6 8 -16 18 -21 15 -8 22 -4 36 20 10 17 15 33 12 36 -3 4 -6 2 -6 -3z"/>
</g>
</svg>
