<svg fill="#000000" xmlns="http://www.w3.org/2000/svg"  viewBox="0 0 50 50" width="50px" height="50px"><path d="M 25 2.0429688 C 12.332797 2.0429686 2.0429687 12.332806 2.0429688 25 C 2.0429688 37.667194 12.332797 47.957031 25 47.957031 C 37.667203 47.957031 47.957031 37.667194 47.957031 25 C 47.957031 12.332806 37.667203 2.0429687 25 2.0429688 z M 25 3.9570312 C 36.633342 3.9570313 46.042969 13.366666 46.042969 25 C 46.042969 29.46679 44.647023 33.597616 42.279297 37.001953 L 32.654297 35.373047 C 31.960297 35.900047 30.396031 37.146641 29.207031 38.556641 C 26.262031 42.052641 26 44 26 44 C 26.89 41.579 29.983656 41.186359 32.472656 41.693359 L 36.855469 42.390625 C 33.480182 44.694628 29.400683 46.042969 25 46.042969 C 20.598897 46.042969 16.520005 44.693077 13.144531 42.388672 L 17.527344 41.693359 C 20.016344 41.186359 23.11 41.579 24 44 L 24 39.351562 L 21.681641 39.351562 L 21.681641 37.351562 L 24 37.351562 L 24 37 C 23.976 34.995 21.887656 34.581766 18.722656 35.134766 L 7.7382812 37.025391 C 5.360345 33.616503 3.9570313 29.477318 3.9570312 25 C 3.9570312 13.366666 13.366658 3.9570313 25 3.9570312 z M 28 5 C 27.47 6.601 27.387328 7.2037969 25.736328 8.9667969 L 17.023438 17.640625 C 14.605438 20.249625 13.003 22.576469 14 26.605469 C 14.343 23.305469 15.749078 21.890297 17.455078 20.154297 C 22.673078 14.630297 28 11.03375 28 7.34375 L 28 5 z M 28 9.6308594 C 27.47 11.231859 27.388281 11.834656 25.738281 13.597656 L 17.025391 22.271484 C 14.320391 25.044484 13.243609 29.111 15.349609 31.25 C 14.367609 28.5 16.091078 26.195156 17.455078 24.785156 C 22.673078 19.261156 28 15.664609 28 11.974609 L 28 9.6308594 z M 28 14.261719 C 27.47 15.863719 27.388328 16.465516 25.736328 18.228516 L 17.478516 26.408203 C 15.061516 29.017203 15.251578 33.671 18.267578 34 C 15.969578 32.73 17.448297 29.482094 19.154297 27.746094 C 24.372297 22.222094 28 20.295469 28 16.605469 L 28 14.261719 z M 31.402344 16.775391 C 33.700344 18.068391 32.222625 21.374578 30.515625 23.142578 C 27.052625 26.677578 25.968 28.017375 26 30.234375 L 26 32.621094 C 26.53 30.990094 26.612672 30.378031 28.263672 28.582031 L 32.191406 24.507812 C 34.609406 21.850812 34.418344 17.110391 31.402344 16.775391 z M 34.378906 19.576172 C 35.359906 22.377172 33.635484 24.722203 32.271484 26.158203 C 28.361484 29.964203 26 32.134219 26 34.949219 L 26 37.335938 C 26.53 35.704937 26.612672 35.092875 28.263672 33.296875 L 32.701172 28.720703 C 35.406172 25.896703 36.484906 21.755172 34.378906 19.576172 z M 35.662109 24.378906 C 35.319109 27.738906 33.913031 29.177313 32.207031 30.945312 C 28.968031 33.847313 27.371188 35.855562 26.617188 37.351562 L 28.904297 37.351562 L 32.636719 33.507812 C 35.055719 30.850813 36.660109 28.480906 35.662109 24.378906 z M 26.011719 39.351562 C 26.003719 39.459563 26 39.562062 26 39.664062 L 26 42.052734 C 26.311 40.927734 26.533062 40.256563 27.164062 39.351562 L 26.011719 39.351562 z"/></svg>