<?xml version="1.0" standalone="no"?>
<!DOCTYPE svg PUBLIC "-//W3C//DTD SVG 20010904//EN"
 "http://www.w3.org/TR/2001/REC-SVG-20010904/DTD/svg10.dtd">
<svg version="1.0" xmlns="http://www.w3.org/2000/svg"
 width="20.000000pt" height="20.000000pt" viewBox="0 0 20.000000 20.000000"
 preserveAspectRatio="xMidYMid meet">

<g transform="translate(0.000000,20.000000) scale(0.100000,-0.100000)"
fill="#000000" stroke="none">
<path d="M40 165 l-24 -26 27 -26 c27 -28 50 -26 27 2 -11 13 -8 15 24 15 47
0 70 -31 57 -78 -5 -18 -6 -32 -1 -32 18 0 28 73 12 96 -12 18 -49 34 -78 34
-22 0 -25 3 -16 12 7 7 12 16 12 20 0 15 -17 8 -40 -17z"/>
</g>
</svg>
